<svg width="32" height="32" viewBox="0 0 32 32" fill="none" xmlns="http://www.w3.org/2000/svg">
  <rect width="32" height="32" rx="8" fill="#0a1628"/>
  <path d="M8 13l3 .8M11 13.8l-2.2 6.7a5.3 5.3 0 005.4 0M11 13.8L13.2 20M11 13.8l5-1.5m5 1.5l3-.8m-3 .8l-2.2 6.7a5.3 5.3 0 005.4 0m-3.2-6.7l2.2 6.7m-2.2-6.7l-5-1.5m-5 1.5V9.5m5 1.5v2.8m0-2.8V9.5M16 11l-2.8 9M16 11l2.8 9" stroke="#b8944e" stroke-width="1.8" stroke-linecap="round" stroke-linejoin="round"/>
  <circle cx="16" cy="8" r="1.5" fill="#b8944e"/>
</svg>
